<?xml version="1.0" encoding="utf-8"?>
<!-- Generator: Adobe Illustrator 13.0.0, SVG Export Plug-In . SVG Version: 6.00 Build 14948)  -->
<!DOCTYPE svg PUBLIC "-//W3C//DTD SVG 1.1//EN" "http://www.w3.org/Graphics/SVG/1.1/DTD/svg11.dtd">
<svg version="1.1" xmlns="http://www.w3.org/2000/svg" xmlns:xlink="http://www.w3.org/1999/xlink" x="0px" y="0px"
	 viewBox="0 0 330.862 148.705" enable-background="new 0 0 330.862 148.705"
	 xml:space="preserve" preserveAspectRatio="xMidYMid meet">
<g id="object1">
	<g id="object3">
		<path fill="#C8DC5F" stroke="#231F20" d="M128.581,10.536l-2.687,1.637l-5.491,2.336c0,0-14.822,5.36-32.489,21.693
			c0,0-39,21.333-47.333-4c0,0,1-22-7.333-24l13-2c14.667-0.333,17,8.667,17,8.667l3,6c11.667,22,23.333,9.333,26.333,6
			c0.75-0.833,5.343-4.129,7.286-5.416"/>
	</g>
	<g id="object2">
		<path fill="#C8DC5F" stroke="#231F20" d="M314.582,100.868l-4.334,3.667c0,0-28.334,13.667-44,19.001
			c-15.668,5.335-36.667,10.666-36.667,10.666s-39.333,3-56.333,2s-16-4.334-28.667-15.666
			c-12.667-11.334-65.667-12.001-65.667-12.001l-68.333-8.666l-4.667-0.333c0,0-1.333,4.335-1,6.667
			c0.333,2.333-1.333,4.668-1.333,4.668s-3.667,4.334-3,7.667s2,7,2,7s20.667,11.998,23,12.666c2.333,0.667,4-1.333,4-1.333
			l3.667-3.333c0,0,0.333,2,1.667,3s0.333,3,0.333,3s0.667,2.333,1.667,2.333s11.333,1,11.333,1h12.333l3-1l4-2.333l3,3l7.667,1
			l15.333-0.334l5.333-1.666l5-2c0,0,1.667,1.666,2,2.666s3.667,0,3.667,0s22.333,1,27,1.667s16,1.667,16,1.667l9.667,1.333
			l4.667-2.333l1.333-0.334l3.667,3.334l21.667,0.666l9.333-1l1.667-2.666c0,0,3-0.334,4,1.666h5.333c0,0,23.334-3.666,27-3.666
			s3.999-3,6.666-2.667s5.334-1,9.334-3s25.333-9.333,25.333-9.333l36.333-15.667c0,0,11.667-7,11.667-10.667s-1-13.333-1-13.333
			s-0.667-9.667-5.667-10.667c0,0-5.332-1.667-6.666,3s-2.334,7-2.334,7v6L314.582,100.868z"/>
	</g>
</g>
<g id="object2_1_">
	<g id="object1_1_">
		<path fill="#BDBEC0" stroke="#010101" stroke-linecap="round" stroke-linejoin="round" d="M151.248,6.535
			c0,0-16.045-2.827-22.667,4l-2.804,1.812l-3.28,1.243c0,0-16.583,6.279-34.25,22.612c0,0-39,21.333-47.333-4c0,0,1-22-7.333-24
			s-15.667,10.333-17.667,23s-4.667,22.667-4.667,22.667s-1,16.667-1,22s1,16.333,1,16.333l-4.333,6l-1,1.333l73.334,9
			c0,0,53,0.667,65.667,12s11.667,14.666,28.667,15.666s56.333-2,56.333-2s20.999-5.332,36.666-10.666s44-19,44-19l4.334-3.667
			c0,0-2.334-22.333,5.333-24l3.333,0.333c0,0-1.666-14.667-15.666-15s-43.001,2-62.334-4.667c0,0-0.334-5-4-5
			s-6.667,0.333-6.667,0.333l-6.333-4.333c0,0-0.667-4-5.333-4.333s-8.333-1.667-8.333-1.667l-4.333-2.667c0,0-2.334-7-5.667-7.667
			s-12.667-0.333-12.667-0.333l-5.667-4.667c0,0-3.667-4-6-5s-4.333-1.667-4.333-1.667l-9.667-5.667c0,0-0.333-2.667-4-6
			s-4-6.333-6.667-5.333S151.248,6.535,151.248,6.535z"/>
	</g>
	<path fill="#BDBEC0" stroke="#010101" stroke-linecap="round" stroke-linejoin="round" d="M100.762,26.153
		c0,0-3.804-15.889,3.133-21.036s12.979-8.057,28.869,2.685c0,0-3.219,2.109-4.183,2.733s-4.321,2.19-4.321,2.19l-5.819,2.686
		l-5.371,2.462l-6.938,4.252L100.762,26.153z"/>
	
		<line fill="none" stroke="#010101" stroke-linecap="round" stroke-linejoin="round" x1="205.653" y1="54.455" x2="216.135" y2="58.947"/>
	<path fill="none" stroke="#010101" stroke-linecap="round" stroke-linejoin="round" d="M185.144,43.957
		c3.702,1.895,8.276,4.236,12.165,6.228"/>
	
		<line fill="none" stroke="#010101" stroke-linecap="round" stroke-linejoin="round" x1="167.156" y1="34.808" x2="178.169" y2="40.385"/>
	<path fill="none" stroke="#010101" stroke-linecap="round" stroke-linejoin="round" d="M149.107,23.038
		c5.774,4.364,11.942,8.585,11.942,8.584"/>
	<path fill="none" stroke="#010101" stroke-linecap="round" stroke-linejoin="round" d="M142.954,18.132
		c0.783,0.676,1.655,1.395,2.583,2.137"/>
	<path fill="none" stroke="#010101" stroke-linecap="round" stroke-linejoin="round" d="M119.897,14.896
		c0,0,12.195-2.845,18.624-0.178"/>
</g>
<g id="object3_1_">
	<path fill="#DEDFE0" stroke="#010101" stroke-linecap="round" stroke-linejoin="round" d="M158.357,4.046c0,0-1.762,0-3.364,3.363
		s-4.645,8.009-5.606,9.45s-7.047,5.606-7.368,6.247c0,0-1.778,1.952-1.778,3.204s-0.537,3.756,0.179,4.472s3.757,0.179,4.83-1.61
		s1.61-4.293,3.22-5.725s3.578-3.398,5.367-4.114s2.684-2.326,3.757-3.578s4.114-2.147,5.009-2.326s2.326-0.894,2.326-0.894
		l-2.326-3.757L158.357,4.046z"/>
	<path fill="#DEDFE0" stroke="#010101" stroke-linecap="round" stroke-linejoin="round" d="M153.838,8.421
		c-0.716,0-8.766,3.398-11.449,5.009s-7.335,2.683-8.229,2.862s-7.513,1.252-6.977,4.115s4.115,2.862,6.619,1.61
		s10.018-4.472,10.018-4.472l7.334-3.399L153.838,8.421z"/>
	<path fill="#DEDFE0" stroke="#010101" stroke-linecap="round" stroke-linejoin="round" d="M179.956,22.017
		c0,0-6.62,2.504-7.156,3.399s2.505,3.22,2.505,3.22l2.146,0.715c0,0,3.041-1.968,3.578-1.968s4.651-0.715,4.651-0.715
		S182.103,21.659,179.956,22.017z"/>
	<path fill="#DEDFE0" stroke="#010101" stroke-linecap="round" stroke-linejoin="round" d="M172.8,25.416
		c0,0-4.65-1.431-6.261-1.073c-1.61,0.358-5.545,1.789-5.545,1.789l-1.789,2.504c0,0,1.789,0.179,3.22,0s2.863-1.252,4.651,0.715
		s2.862,3.399,2.862,3.399l4.293,4.293l1.968,0.537l2.325,0.895c0,0,0.18-1.431,0.358-2.504s1.431-3.757,1.431-3.757l-2.146-1.789
		l-0.716-1.073l-2.146-0.715L172.8,25.416z"/>
	<path fill="#DEDFE0" stroke="#010101" stroke-linecap="round" stroke-linejoin="round" d="M163.498,28.457
		c0,0-4.115,6.261-4.651,9.124s-2.683,6.083-0.357,6.619s4.651-1.968,5.367-3.399s2.147-4.83,2.147-4.83l1.968-5.546
		C167.971,30.424,165.645,26.846,163.498,28.457z"/>
	<path fill="#DEDFE0" stroke="#010101" stroke-linecap="round" stroke-linejoin="round" d="M184.965,30.067
		c0,0-3.398-0.537-4.114,1.073s-1.968,4.83-1.968,4.83s-0.716,5.188-0.716,6.619s2.505,10.913,2.505,10.913s1.073,2.862,2.146,2.862
		s1.968-1.073,1.968-1.073v-3.757v-8.229l1.431-7.334l0.716-3.399C186.933,32.571,185.681,29.888,184.965,30.067z"/>
	<path fill="#DEDFE0" stroke="#010101" stroke-linecap="round" stroke-linejoin="round" d="M204.821,32.035
		c0,0-12.88-0.537-13.953,0s-3.936,2.146-3.936,2.146l-1.61,7.156c0,0,2.862-1.79,4.473-2.684s8.05-1.968,8.05-1.968l6.083-0.179
		l1.968,1.431l4.293,1.968l-1.431-3.578C208.758,36.328,207.504,32.393,204.821,32.035z"/>
	<path fill="#DEDFE0" stroke="#010101" stroke-linecap="round" stroke-linejoin="round" d="M203.569,42.231
		c0,0-3.399-0.716-4.651,2.683s-1.609,6.261-1.252,9.302s2.325,7.871,3.936,8.229s5.366-0.537,5.009-1.073s-1.609-6.082-1.609-6.082
		l0.357-6.083c0,0,2.326-3.041,1.789-3.936S205,42.231,203.569,42.231z"/>
	<path fill="#DEDFE0" stroke="#010101" stroke-linecap="round" stroke-linejoin="round" d="M207.147,45.272
		c0,0,9.48-2.146,10.912-1.61s4.114,0.357,4.114,0.357s2.862,0.18,3.757,1.074s1.968,2.862,1.968,2.862l-5.725,0.537l-7.871,1.073
		l-7.155,0.895h-1.968l0.716-1.968l1.252-1.968V45.272z"/>
	<path fill="#DEDFE0" stroke="#010101" stroke-linecap="round" stroke-linejoin="round" d="M236.128,52.965
		c0,0-2.504,1.432-3.936,2.326s-6.262,3.22-6.262,3.22s-8.05,3.578-8.229,5.903s0.179,4.294,1.968,3.936s6.798-3.399,6.798-3.399
		s7.334-3.757,8.229-3.936s5.725-1.61,5.725-1.61l3.399-1.431l1.788-0.715c0,0-0.178-5.009-4.829-4.651
		S236.128,52.965,236.128,52.965z"/>
	<path fill="#DEDFE0" stroke="#010101" stroke-linecap="round" stroke-linejoin="round" d="M222.174,60.121
		c0,0-0.537-5.01,0.895-5.904s2.684-1.431,2.684-1.431s-4.65-1.788-5.366-1.431s-5.545,1.252-5.725,2.504s0.715,4.114,1.609,5.545
		s1.969,2.862,2.505,2.862S222.174,60.121,222.174,60.121z"/>
	<path fill="#DEDFE0" stroke="#010101" stroke-linecap="round" stroke-linejoin="round" d="M223.963,54.038
		c0,0,6.44-0.179,6.44,0.895s-2.684,2.504-2.684,2.504l-5.546-0.358C222.174,57.079,222.531,54.038,223.963,54.038z"/>
</g>
<g id="object4">
	<g id="object2_2_">
		<path fill="#231F20" stroke="#010101" stroke-linecap="round" stroke-linejoin="round" d="M312.118,106.227l-6.372,5.311
			l-6.637,3.717c0,0-44.339,17.788-47.524,19.115s-5.045,2.655-7.699,3.187s-36.904,5.044-36.904,5.044l-2.655-3.186l-0.797,3.186
			l-33.983,0.266l-3.982-3.451l-1.328,3.451c-16.992-6.372-59.472-3.982-59.472-3.982l-2.92-4.514l-2.124,5.045l-30.001-0.266
			l-2.124-3.982l-1.327,3.717C61.754,139.679,36,136.229,36,136.229l-1.858-6.106l-0.796,2.654l-1.593,1.593L6.795,122.954
			l-5.841-3.186l1.741,5.753c0,0,20.667,11.998,23,12.666c2.333,0.667,4-1.333,4-1.333l3.667-3.333c0,0,0.333,2,1.667,3
			s0.333,3,0.333,3s0.667,2.333,1.667,2.333s11.333,1,11.333,1h12.333l3-1l4-2.333l3,3l7.667,1l15.333-0.334l5.333-1.666l5-2
			c0,0,1.667,1.666,2,2.666s3.667,0,3.667,0s22.333,1,27,1.667s16,1.667,16,1.667l9.667,1.333l4.667-2.333l1.334-0.334l3.666,3.334
			l21.668,0.666l9.332-1l1.668-2.666c0,0,3-0.334,4,1.666h5.332c0,0,23.334-3.666,27-3.666s4-3,6.666-2.667
			c2.668,0.333,5.334-1,9.334-3s25.334-9.333,25.334-9.333l36.332-15.667c0,0,11.668-7,11.668-10.667s-1-13.333-1-13.333
			s-0.668-9.667-5.668-10.667c0,0-5.332-1.667-6.666,3s-2.334,7-2.334,7v6l-0.187,7.466l-0.531,3.186L312.118,106.227z"/>
	</g>
</g>
</svg>
